<svg xmlns="http://www.w3.org/2000/svg" xmlns:xlink="http://www.w3.org/1999/xlink" xmlns:fi="http://pattern.flaticon.com/" x="0" y="0" width="1080" height="1080" viewBox="0 0 7560 7560"><rect x="0px" y="0px" width="100%" height="100%" opacity="1" fill="#ffffff"/><defs><g transform="matrix(0.9375 0 0 0.9375 144 263.9999994277955)" id="L1_0"><path d="m24 17a38 38 0 0 0 0-4.64c-1.08-8.07-16-4.36-16 6.64v4a5 5 0 0 0 5 5 11 11 0 0 0 11-11z"/><path d="m45 8a5 5 0 0 0 -5 5v4a11 11 0 0 0 11 11 5 5 0 0 0 5-5v-4a11 11 0 0 0 -11-11z"/><path d="m51.76 30a4.85 4.85 0 0 1 -.76 0 13 13 0 0 1 -13-13v-4.09a20.29 20.29 0 0 0 -12 0v4.09a13 13 0 0 1 -13 13 7.82 7.82 0 0 1 -.89-.06c-.11 1.5-.11.27-.11 19.06a7 7 0 0 0 7 7h3.11c-2.45-2.39-2.11-4.86-2.11-8a12 12 0 0 1 8.13-11.34 2.39 2.39 0 0 1 2.26-1.66h3.22a2.39 2.39 0 0 1 2.26 1.65 12 12 0 0 1 8.13 11.35c0 3.16.33 5.62-2.11 8h3.11a7 7 0 0 0 7-7c0-20.1.06-19-.24-19zm-28.26 1a1.5 1.5 0 0 1 0-3 1.5 1.5 0 0 1 0 3zm17 0a1.5 1.5 0 0 1 0-3 1.5 1.5 0 0 1 0 3z"/><path d="m42 48a10 10 0 0 0 -6.31-9.29c-.41.82-1.21 1.1-2.69 1.89v10.4a1 1 0 0 1 -2 0v-10.4c-1.2-.64-2.27-1.05-2.69-1.89a10 10 0 0 0 -6.31 9.29v3a5 5 0 0 0 5 5h10a5 5 0 0 0 5-5z"/></g><g transform="matrix(0.9375 0 0 0.9375 251.99999843753085 216.00000128746046)" id="L1_3"><path d="m36 23.29c-.17 1.69-1.86 2.15-3.53 3-.58.31-.83 0-3.13-1.12a2.39 2.39 0 0 1 -1.34-1.88 7 7 0 1 0 3.23 11.34 1 1 0 0 1 1.5 0 7 7 0 0 0 8.66 1.48c7.15-3.95 2.77-15.18-5.39-12.82z"/><path d="m50.91 22.63a18.58 18.58 0 0 0 -37.1-.32l-1.35 15.56a19.77 19.77 0 1 0 39.46.34zm-12.41-6.63a1.5 1.5 0 0 1 0 3 1.5 1.5 0 0 1 0-3zm-13 0a1.5 1.5 0 0 1 0 3 1.5 1.5 0 0 1 0-3zm16.34 22.13-.76 15.33a1.62 1.62 0 0 1 -3.23.08c-1.64-16.39-1.33-14.63-1.8-14.76a9 9 0 0 1 -4-2.07 9.09 9.09 0 0 1 -4.07 2.08c-.45.09-.15-1.52-1.78 14.75a1.62 1.62 0 0 1 -3.23-.08l-.76-15.33c-9.92-4.13-4.48-20.07 6.42-16.74a2.4 2.4 0 0 1 1.76-.77c3.22 0 4.09-.21 5 .78a9 9 0 0 1 6.48 16.73z"/><path d="m34 23c0-.18 0-.08 0 .05z"/></g><g transform="matrix(0.9375 0 0 0.9375 48 0)" id="L1_5"><path d="M12.81,18.49C9.18,23.76,7,34.17,7,40.26,7,54.07,18.19,57,32,57s25-2.93,25-16.74C57,8.81,28.31-4.22,12.81,18.49Zm9.19,5a1.5,1.5,0,0,1,3,0A1.5,1.5,0,0,1,22,23.5ZM36.53,52H27.47a5,5,0,0,1-5-5.55l.74-6.6A8.79,8.79,0,0,1,28,33a2.34,2.34,0,0,1,2.36-2h3.22A2.34,2.34,0,0,1,36,32.94c5.27,2.67,4.87,7.67,5.53,13.51A5,5,0,0,1,36.53,52Zm4-27a1.5,1.5,0,0,1,0-3A1.5,1.5,0,0,1,40.5,25Z"/><path d="M38.78,40.07a6.9,6.9,0,0,0-3.49-5.23A8.25,8.25,0,0,1,33,36v8.45l2.55,1.7a1,1,0,0,1-1.1,1.66L32,46.2l-2.45,1.63a1,1,0,0,1-1.1-1.66L31,44.47V36a8.87,8.87,0,0,1-2.29-1.18,6.84,6.84,0,0,0-3.49,5.23c-.73,6.54-1.19,7.59,0,8.93s1.86,1,11.3,1a3,3,0,0,0,3-3.33Z"/><path d="M51.51,15.55a5,5,0,1,0-7.32-6.77C46.11,9.74,50.66,14.13,51.51,15.55Z"/><path d="M19.81,8.78a5,5,0,1,0-7.32,6.77A30.24,30.24,0,0,1,19.81,8.78Z"/></g><g transform="matrix(0.9375 0 0 0.9375 -5 231)" id="L1_6"><path d="M12.81,18.49C9.18,23.76,7,34.17,7,40.26,7,54.07,18.19,57,32,57s25-2.93,25-16.74C57,8.81,28.31-4.22,12.81,18.49Zm9.19,5a1.5,1.5,0,0,1,3,0A1.5,1.5,0,0,1,22,23.5ZM36.53,52H27.47a5,5,0,0,1-5-5.55l.74-6.6A8.79,8.79,0,0,1,28,33a2.34,2.34,0,0,1,2.36-2h3.22A2.34,2.34,0,0,1,36,32.94c5.27,2.67,4.87,7.67,5.53,13.51A5,5,0,0,1,36.53,52Zm4-27a1.5,1.5,0,0,1,0-3A1.5,1.5,0,0,1,40.5,25Z"/><path d="M38.78,40.07a6.9,6.9,0,0,0-3.49-5.23A8.25,8.25,0,0,1,33,36v8.45l2.55,1.7a1,1,0,0,1-1.1,1.66L32,46.2l-2.45,1.63a1,1,0,0,1-1.1-1.66L31,44.47V36a8.87,8.87,0,0,1-2.29-1.18,6.84,6.84,0,0,0-3.49,5.23c-.73,6.54-1.19,7.59,0,8.93s1.86,1,11.3,1a3,3,0,0,0,3-3.33Z"/><path d="M51.51,15.55a5,5,0,1,0-7.32-6.77C46.11,9.74,50.66,14.13,51.51,15.55Z"/><path d="M19.81,8.78a5,5,0,1,0-7.32,6.77A30.24,30.24,0,0,1,19.81,8.78Z"/></g><g transform="matrix(0.9375 0 0 0.9375 97 191)" id="L1_7"><path d="m50 28.91a7 7 0 1 0 -2.47-13 18 18 0 0 0 -31.06 0 7 7 0 1 0 -2.47 13v7a12.06 12.06 0 0 0 -3.32 4.59c-4.12 10.58 9.65 17.5 21.32 17.5 17.48 0 28.37-12.67 18-22.07zm1-11.91a5 5 0 0 1 0 10c-.59 0-.59-.07-1-.07 0-3 .08-5.6-1.55-9.24a5.12 5.12 0 0 1 2.55-.69zm-37.18 9.93a5 5 0 1 1 1.65-9.27c.28.16-1.47 2.44-1.47 7.34 0 2.33.08 1.88-.18 1.93zm18.18 29.07c-11 0-20-5.38-20-12 0-3.54 2.62-5.79 2.83-6.12 3.17-3.14 5.17-2.75 5.17-4.08v-11.8a6 6 0 0 1 11.14-3.09 1 1 0 0 0 1.72 0 6 6 0 0 1 11.14 3.09c0 12.52-.23 12.32.57 12.7 14.59 7.04 6.16 21.3-12.57 21.3z"/><path d="m37 46h-10a1 1 0 0 0 0 2h10a1 1 0 0 0 0-2z"/><path d="m28 26.5a1.5 1.5 0 0 0 -3 0 1.5 1.5 0 0 0 3 0z"/><path d="m37.5 25a1.5 1.5 0 0 0 0 3 1.5 1.5 0 0 0 0-3z"/><path d="m29 38h1a1 1 0 0 0 0-2h-1a1 1 0 0 0 0 2z"/><path d="m34 38h1a1 1 0 0 0 0-2h-1a1 1 0 0 0 0 2z"/></g><g transform="matrix(0.9375 0 0 0.9375 135 43)" id="L1_9"><path d="M51.33,21.88A8,8,0,0,0,58,14c0-8.4-11.44-11.12-15.16-3.54a18.69,18.69,0,0,0-21.68,0C17.45,2.89,6,5.58,6,14a8,8,0,0,0,6.67,7.88L8.66,29a13,13,0,0,0,5,17.68L32,57,50.36,46.72A13,13,0,0,0,57,35.39C57,30.9,55,28.49,51.33,21.88ZM50,8a6,6,0,0,1,.7,12c-.58.06,0,.83-2.33-3.36a18.57,18.57,0,0,0-4-4.89A6.3,6.3,0,0,1,50,8ZM8,14c0-6.43,8.79-8.31,11.44-2.52a1,1,0,0,0,.17.23,18.57,18.57,0,0,0-4,4.89C13.28,20.78,13.88,20,13.3,20A6,6,0,0,1,8,14ZM44.57,34.14,38.74,45a7.66,7.66,0,0,1-13.48,0L19.43,34.14A4.12,4.12,0,0,1,15.31,30c0-1,0-.66,2.82-9.13a4,4,0,0,1,5.16-2.5L32,21.57l8.71-3.17a4,4,0,0,1,5.16,2.5l2.61,7.82A4.12,4.12,0,0,1,44.57,34.14Z"/><path d="M33,40.46V36.88l1.23-.62a1.39,1.39,0,0,0-.62-2.63H30.39A1.39,1.39,0,0,0,29,35c0,1,.69,1.2,2,1.86v3.58l-2.55,1.71A1,1,0,0,0,29,44c.44,0,.5-.13,3-1.8C34.62,44,34.59,44,35,44a1,1,0,0,0,.55-1.83Z"/><path d="M25.5,25a1.5,1.5,0,0,0,0,3A1.5,1.5,0,0,0,25.5,25Z"/><path d="M38.5,25a1.5,1.5,0,0,0,0,3A1.5,1.5,0,0,0,38.5,25Z"/></g><g transform="matrix(0.9375 0 0 0.9375 -7 138)" id="L1_10"><path d="M51.33,21.88A8,8,0,0,0,58,14c0-8.4-11.44-11.12-15.16-3.54a18.69,18.69,0,0,0-21.68,0C17.45,2.89,6,5.58,6,14a8,8,0,0,0,6.67,7.88L8.66,29a13,13,0,0,0,5,17.68L32,57,50.36,46.72A13,13,0,0,0,57,35.39C57,30.9,55,28.49,51.33,21.88ZM50,8a6,6,0,0,1,.7,12c-.58.06,0,.83-2.33-3.36a18.57,18.57,0,0,0-4-4.89A6.3,6.3,0,0,1,50,8ZM8,14c0-6.43,8.79-8.31,11.44-2.52a1,1,0,0,0,.17.23,18.57,18.57,0,0,0-4,4.89C13.28,20.78,13.88,20,13.3,20A6,6,0,0,1,8,14ZM44.57,34.14,38.74,45a7.66,7.66,0,0,1-13.48,0L19.43,34.14A4.12,4.12,0,0,1,15.31,30c0-1,0-.66,2.82-9.13a4,4,0,0,1,5.16-2.5L32,21.57l8.71-3.17a4,4,0,0,1,5.16,2.5l2.61,7.82A4.12,4.12,0,0,1,44.57,34.14Z"/><path d="M33,40.46V36.88l1.23-.62a1.39,1.39,0,0,0-.62-2.63H30.39A1.39,1.39,0,0,0,29,35c0,1,.69,1.2,2,1.86v3.58l-2.55,1.71A1,1,0,0,0,29,44c.44,0,.5-.13,3-1.8C34.62,44,34.59,44,35,44a1,1,0,0,0,.55-1.83Z"/><path d="M25.5,25a1.5,1.5,0,0,0,0,3A1.5,1.5,0,0,0,25.5,25Z"/><path d="M38.5,25a1.5,1.5,0,0,0,0,3A1.5,1.5,0,0,0,38.5,25Z"/></g><g transform="matrix(0.9375 0 0 0.9375 315.0000004718802 46.999999996803126)" id="L1_11"><path d="M14.53,17.34a24.51,24.51,0,0,1,7.4-5.17,5,5,0,1,0-7.4,5.17Z"/><path d="M49.36,17.41A5,5,0,0,0,47,8a5,5,0,0,0-4.93,4.22A25.24,25.24,0,0,1,49.36,17.41Z"/><path d="M55.55,43H46a1,1,0,0,1,0-2h9.33L55,38H47a1,1,0,0,1,0-2h7.78l-.33-3H48a1,1,0,0,1,0-2h6.17a22.84,22.84,0,0,0-20.9-19c-.38,0-.27-.5-.27,3h4a1,1,0,0,1,0,2H33v3h4a1,1,0,0,1,0,2H27a1,1,0,0,1,0-2h4V17H27a1,1,0,0,1,0-2h4V12A22.47,22.47,0,0,0,9.8,31H16a1,1,0,0,1,0,2H9.56l-.33,3H17a1,1,0,0,1,0,2H9l-.33,3H18a1,1,0,0,1,0,2H8.45l-.33,3a17.48,17.48,0,0,1,14.61,7.44A6,6,0,0,0,27.64,56h8.72a6,6,0,0,0,4.91-2.56A17.48,17.48,0,0,1,55.88,46Zm-33-11a1.5,1.5,0,0,1,0-3A1.5,1.5,0,0,1,22.5,32Zm15,19.83L32,48.2l-5.45,3.63a1,1,0,0,1-1.1-1.66L31,46.47V43l-1.68-.84a2.39,2.39,0,0,1,1.07-4.53h3.22A2.4,2.4,0,0,1,36,40c0,1.76-1.44,2.19-3,3v3.48l5.55,3.7A1,1,0,0,1,37.45,51.83ZM41.5,32a1.5,1.5,0,0,1,0-3A1.5,1.5,0,0,1,41.5,32Z"/></g><g transform="matrix(0.9375 0 0 0.9375 213 125.99999885559077)" id="L1_14"><path d="m37.7 3h-11.4a15.3 15.3 0 0 0 -14.38 20.53l4.69 12.89a10 10 0 0 0 9.39 6.58h12.69a10 10 0 0 0 9.53-7c4.31-13.54 4.78-14.22 4.78-17.38a15.29 15.29 0 0 0 -15.3-15.62zm-17.2 19a1.5 1.5 0 0 1 0-3 1.5 1.5 0 0 1 0 3zm2.79 17.71-1-1a1 1 0 0 1 1.42-1.42l1 1a1 1 0 0 1 -1.42 1.42zm18.42-1c-1 1-1.19 1.29-1.71 1.29a1 1 0 0 1 -.71-1.71l1-1a1 1 0 0 1 1.42 1.42zm1.79-16.71a1.5 1.5 0 0 1 0-3 1.5 1.5 0 0 1 0 3z"/><path d="m35 45h-6c0 6.72.64 11.15-3 16l6-4 6 4c-3.64-4.86-3-9.24-3-16z"/></g><path d="m57.88 48.46c-2.12-6.91-3.88-11.89-3.88-20.46a22 22 0 1 0 -44 0c0 8.87-2 14.51-3.88 20.46a2.74 2.74 0 0 0 2.62 3.54c2.49 0 4.91.29 7.26-2.1v1.1a4 4 0 0 0 3.91 4 8.11 8.11 0 0 0 6.09-2.73 6.11 6.11 0 0 0 6 5.73 6 6 0 0 0 6-5.71c3.88 4.2 10 3.3 10-1.29v-1.1c2.38 2.42 5 2.1 7.26 2.1a2.74 2.74 0 0 0 2.62-3.54zm-14.38-22.46a1.5 1.5 0 0 1 0-3 1.5 1.5 0 0 1 0 3zm-24.5-1.5a1.5 1.5 0 0 1 3 0 1.5 1.5 0 0 1 -3 0zm6.63 6.86a9 9 0 0 1 12.74 0l2.08 2.09-8.45 8.55-8.5-8.5z" transform="matrix(0.9375 0 0 0.9375 220.99999849796302 1.000002360343899)" id="L1_15"/><path d="m50 36.18v-23.18a8 8 0 1 0 -16 0v13.1a20.56 20.56 0 0 0 -4 0v-13.1a8 8 0 0 0 -16 0v23.18a20.84 20.84 0 0 0 -3 10.82 12 12 0 0 0 12 12h18c9.82 0 16.11-11.06 9-22.82zm-31-5.67v-17.51a3 3 0 0 1 6 0v14.21a20.68 20.68 0 0 0 -6 3.3zm3 12a1.5 1.5 0 0 1 3 0 1.5 1.5 0 0 1 -3-.01zm10 12.81a4.5 4.5 0 0 1 -3.5 1.68c-4.24 0-5.68-5.5-3.5-5.5a1 1 0 0 1 1 1 2.5 2.5 0 0 0 5 0 1 1 0 0 1 0-.25c-.24-1 .83-.33-1.26-1.44a1.5 1.5 0 0 1 .65-2.81h3.22a1.43 1.43 0 0 1 1.39 1.48c0 1.17-1 1.44-2.12 2.05a1 1 0 0 1 .09.72 1 1 0 0 1 0 .25 2.5 2.5 0 0 0 5 0 1 1 0 0 1 2 0 4.5 4.5 0 0 1 -7.97 2.82zm8.5-11.32a1.5 1.5 0 0 1 0-3 1.5 1.5 0 0 1 0 3zm4.16-13.75a20.48 20.48 0 0 0 -5.66-3v-14.25a3 3 0 0 1 6 0c0 20.25.15 17.57-.34 17.25z" transform="matrix(0.9375 0 0 0.9375 55 99)" id="L1_16"/></defs><g fi:class="KUsePattern"><pattern id="pattern_L1_0" width="350" height="350" patternUnits="userSpaceOnUse"><use xlink:href="#L1_0" x="-350" y="-350"/><use xlink:href="#L1_0" x="0" y="-350"/><use xlink:href="#L1_0" x="350" y="-350"/><use xlink:href="#L1_0" x="-350" y="0"/><use xlink:href="#L1_0" x="0" y="0"/><use xlink:href="#L1_0" x="350" y="0"/><use xlink:href="#L1_0" x="-350" y="350"/><use xlink:href="#L1_0" x="0" y="350"/><use xlink:href="#L1_0" x="350" y="350"/></pattern><rect x="0" y="0" width="100%" height="100%" fill="url(#pattern_L1_0)"/></g><g fi:class="KUsePattern"><pattern id="pattern_L1_3" width="350" height="350" patternUnits="userSpaceOnUse"><use xlink:href="#L1_3" x="-350" y="-350"/><use xlink:href="#L1_3" x="0" y="-350"/><use xlink:href="#L1_3" x="350" y="-350"/><use xlink:href="#L1_3" x="-350" y="0"/><use xlink:href="#L1_3" x="0" y="0"/><use xlink:href="#L1_3" x="350" y="0"/><use xlink:href="#L1_3" x="-350" y="350"/><use xlink:href="#L1_3" x="0" y="350"/><use xlink:href="#L1_3" x="350" y="350"/></pattern><rect x="0" y="0" width="100%" height="100%" fill="url(#pattern_L1_3)"/></g><g fi:class="KUsePattern"><pattern id="pattern_L1_5" width="350" height="350" patternUnits="userSpaceOnUse"><use xlink:href="#L1_5" x="-350" y="-350"/><use xlink:href="#L1_5" x="0" y="-350"/><use xlink:href="#L1_5" x="350" y="-350"/><use xlink:href="#L1_5" x="-350" y="0"/><use xlink:href="#L1_5" x="0" y="0"/><use xlink:href="#L1_5" x="350" y="0"/><use xlink:href="#L1_5" x="-350" y="350"/><use xlink:href="#L1_5" x="0" y="350"/><use xlink:href="#L1_5" x="350" y="350"/></pattern><rect x="0" y="0" width="100%" height="100%" fill="url(#pattern_L1_5)"/></g><g fi:class="KUsePattern"><pattern id="pattern_L1_6" width="350" height="350" patternUnits="userSpaceOnUse"><use xlink:href="#L1_6" x="-350" y="-350"/><use xlink:href="#L1_6" x="0" y="-350"/><use xlink:href="#L1_6" x="350" y="-350"/><use xlink:href="#L1_6" x="-350" y="0"/><use xlink:href="#L1_6" x="0" y="0"/><use xlink:href="#L1_6" x="350" y="0"/><use xlink:href="#L1_6" x="-350" y="350"/><use xlink:href="#L1_6" x="0" y="350"/><use xlink:href="#L1_6" x="350" y="350"/></pattern><rect x="0" y="0" width="100%" height="100%" fill="url(#pattern_L1_6)"/></g><g fi:class="KUsePattern"><pattern id="pattern_L1_7" width="350" height="350" patternUnits="userSpaceOnUse"><use xlink:href="#L1_7" x="-350" y="-350"/><use xlink:href="#L1_7" x="0" y="-350"/><use xlink:href="#L1_7" x="350" y="-350"/><use xlink:href="#L1_7" x="-350" y="0"/><use xlink:href="#L1_7" x="0" y="0"/><use xlink:href="#L1_7" x="350" y="0"/><use xlink:href="#L1_7" x="-350" y="350"/><use xlink:href="#L1_7" x="0" y="350"/><use xlink:href="#L1_7" x="350" y="350"/></pattern><rect x="0" y="0" width="100%" height="100%" fill="url(#pattern_L1_7)"/></g><g fi:class="KUsePattern"><pattern id="pattern_L1_9" width="350" height="350" patternUnits="userSpaceOnUse"><use xlink:href="#L1_9" x="-350" y="-350"/><use xlink:href="#L1_9" x="0" y="-350"/><use xlink:href="#L1_9" x="350" y="-350"/><use xlink:href="#L1_9" x="-350" y="0"/><use xlink:href="#L1_9" x="0" y="0"/><use xlink:href="#L1_9" x="350" y="0"/><use xlink:href="#L1_9" x="-350" y="350"/><use xlink:href="#L1_9" x="0" y="350"/><use xlink:href="#L1_9" x="350" y="350"/></pattern><rect x="0" y="0" width="100%" height="100%" fill="url(#pattern_L1_9)"/></g><g fi:class="KUsePattern"><pattern id="pattern_L1_10" width="350" height="350" patternUnits="userSpaceOnUse"><use xlink:href="#L1_10" x="-350" y="-350"/><use xlink:href="#L1_10" x="0" y="-350"/><use xlink:href="#L1_10" x="350" y="-350"/><use xlink:href="#L1_10" x="-350" y="0"/><use xlink:href="#L1_10" x="0" y="0"/><use xlink:href="#L1_10" x="350" y="0"/><use xlink:href="#L1_10" x="-350" y="350"/><use xlink:href="#L1_10" x="0" y="350"/><use xlink:href="#L1_10" x="350" y="350"/></pattern><rect x="0" y="0" width="100%" height="100%" fill="url(#pattern_L1_10)"/></g><g fi:class="KUsePattern"><pattern id="pattern_L1_11" width="350" height="350" patternUnits="userSpaceOnUse"><use xlink:href="#L1_11" x="-350" y="-350"/><use xlink:href="#L1_11" x="0" y="-350"/><use xlink:href="#L1_11" x="350" y="-350"/><use xlink:href="#L1_11" x="-350" y="0"/><use xlink:href="#L1_11" x="0" y="0"/><use xlink:href="#L1_11" x="350" y="0"/><use xlink:href="#L1_11" x="-350" y="350"/><use xlink:href="#L1_11" x="0" y="350"/><use xlink:href="#L1_11" x="350" y="350"/></pattern><rect x="0" y="0" width="100%" height="100%" fill="url(#pattern_L1_11)"/></g><g fi:class="KUsePattern"><pattern id="pattern_L1_14" width="350" height="350" patternUnits="userSpaceOnUse"><use xlink:href="#L1_14" x="-350" y="-350"/><use xlink:href="#L1_14" x="0" y="-350"/><use xlink:href="#L1_14" x="350" y="-350"/><use xlink:href="#L1_14" x="-350" y="0"/><use xlink:href="#L1_14" x="0" y="0"/><use xlink:href="#L1_14" x="350" y="0"/><use xlink:href="#L1_14" x="-350" y="350"/><use xlink:href="#L1_14" x="0" y="350"/><use xlink:href="#L1_14" x="350" y="350"/></pattern><rect x="0" y="0" width="100%" height="100%" fill="url(#pattern_L1_14)"/></g><g fi:class="KUsePattern"><pattern id="pattern_L1_15" width="350" height="350" patternUnits="userSpaceOnUse"><use xlink:href="#L1_15" x="-350" y="-350"/><use xlink:href="#L1_15" x="0" y="-350"/><use xlink:href="#L1_15" x="350" y="-350"/><use xlink:href="#L1_15" x="-350" y="0"/><use xlink:href="#L1_15" x="0" y="0"/><use xlink:href="#L1_15" x="350" y="0"/><use xlink:href="#L1_15" x="-350" y="350"/><use xlink:href="#L1_15" x="0" y="350"/><use xlink:href="#L1_15" x="350" y="350"/></pattern><rect x="0" y="0" width="100%" height="100%" fill="url(#pattern_L1_15)"/></g><g fi:class="KUsePattern"><pattern id="pattern_L1_16" width="350" height="350" patternUnits="userSpaceOnUse"><use xlink:href="#L1_16" x="-350" y="-350"/><use xlink:href="#L1_16" x="0" y="-350"/><use xlink:href="#L1_16" x="350" y="-350"/><use xlink:href="#L1_16" x="-350" y="0"/><use xlink:href="#L1_16" x="0" y="0"/><use xlink:href="#L1_16" x="350" y="0"/><use xlink:href="#L1_16" x="-350" y="350"/><use xlink:href="#L1_16" x="0" y="350"/><use xlink:href="#L1_16" x="350" y="350"/></pattern><rect x="0" y="0" width="100%" height="100%" fill="url(#pattern_L1_16)"/></g></svg>